<svg id="Layer_1" xmlns="http://www.w3.org/2000/svg" xmlns:xlink="http://www.w3.org/1999/xlink" viewBox="0 0 5 5"><style>.st0{clip-path:url(#SVGID_2_)}.st1{fill:none;stroke:#ff2c2c;stroke-width:2;stroke-linecap:round;stroke-linejoin:round;stroke-miterlimit:10}.st2{fill:#ff0000}</style><defs><path id="SVGID_1_" d="M74 79.2h300v300H74z"/></defs><clipPath id="SVGID_2_"><use xlink:href="#SVGID_1_" overflow="visible"/></clipPath><g class="st0"><path class="st1" d="M-13.8-33.3l4.7-3.6c4.5-3.4 11.8-3.4 16.3 0l54 41.1-54 41.1c-4.5 3.4-11.8 3.4-16.3 0l-54-41.1"/></g><g><circle class="st2" cx="2.5" cy="2.5" r=".7"/><path class="st2" d="M.7 5c0-.4-.3-.7-.7-.7V5h.7zM4.3 0c0 .4.3.7.7.7V0h-.7zM.7 0H0v.7C.4.7.7.4.7 0zM4.3 5H5v-.7c-.4 0-.7.3-.7.7z"/></g></svg>